<svg width="1383" height="60" viewBox="0 0 1383 60" fill="none" xmlns="http://www.w3.org/2000/svg">
    <rect width="1380" height="60" fill="#111111"/>
    <mask id="path-1-inside-1_42_5479" fill="white">
        <path d="M3 0H1383V60H3V0Z"/>
    </mask>
    <path d="M3 0H1383V60H3V0Z" fill="#111111"/>
    <path d="M28.406 37.673H32.1335V25.2915H37.5177V22.3269H23V25.2915H28.406V37.673Z" fill="white"/>
    <path d="M38.6575 37.673H42.385V31.068H49.4478V37.673H53.1753V22.3269H49.4478V28.0817H42.385V22.3269H38.6575V37.673Z" fill="white"/>
    <path d="M68.226 28.2125H59.6594V25.3133H68.6839V22.3269H55.9319V37.673H68.6839V34.6866H59.6594V31.1988H68.226V28.2125Z" fill="white"/>
    <path d="M75.5583 37.673H83.9071C87.6782 37.673 89.8801 35.9945 89.8801 33.0953C89.8801 31.1553 88.5068 29.9999 87.0244 29.5422C88.2232 29.1062 89.3132 28.0599 89.3132 26.2724C89.3132 24.1144 87.722 22.3269 84.0598 22.3269H75.5583V37.673ZM79.2206 28.3215V25.1171H83.2969C84.5828 25.1171 85.4766 25.5749 85.4766 26.7302C85.4766 27.6675 84.9316 28.3215 83.275 28.3215H79.2206ZM79.2206 31.1116H83.4931C85.1278 31.1116 85.9561 31.7438 85.9561 32.9645C85.9561 34.4904 84.8664 34.9046 83.4276 34.9046H79.2206V31.1116Z" fill="white"/>
    <path d="M91.5981 37.673H103.413V34.6866H95.3257V22.3269H91.5981V37.673Z" fill="white"/>
    <path d="M112.197 22C106.987 22 103.848 25.7275 103.848 29.9564C103.848 34.4469 106.813 38 112.022 38C117.603 38 120.436 34.2071 120.436 29.9346C120.436 25.7493 117.559 22 112.197 22ZM112.088 24.8992C115.183 24.8992 116.513 27.2752 116.513 29.9782C116.513 32.485 115.314 35.1008 112.24 35.1008C109.232 35.1008 107.772 32.812 107.772 29.9128C107.772 27.3188 109.101 24.8992 112.088 24.8992Z" fill="white"/>
    <path d="M133.497 32.7902C132.886 34.2725 131.927 35.1226 129.747 35.1226C126.717 35.1226 125.366 32.703 125.366 29.8692C125.366 27.079 126.848 24.8774 129.725 24.8774C132.341 24.8774 133.169 26.2943 133.497 27.1662H137.268C136.81 24.6158 134.477 22 129.769 22C124.341 22 121.442 25.8147 121.442 30.0218C121.442 34.2071 124.079 38 129.573 38C134.39 38 136.526 35.4932 137.224 32.7902H133.497Z" fill="white"/>
    <path d="M138.589 37.673H142.317V32.5939L144.257 30.9809L149.903 37.673H154.524L146.916 28.9318L154.132 22.3269H149.576C146.655 25.0517 144.518 26.9918 142.317 29.0408V22.3269H138.589V37.673Z" fill="white"/>
    <path d="M199.372 22C194.162 22 191.023 25.7275 191.023 29.9564C191.023 34.4469 193.988 38 199.197 38C204.778 38 207.612 34.2071 207.612 29.9346C207.612 25.7493 204.734 22 199.372 22ZM199.263 24.8992C202.358 24.8992 203.688 27.2752 203.688 29.9782C203.688 32.485 202.489 35.1008 199.416 35.1008C196.407 35.1008 194.947 32.812 194.947 29.9128C194.947 27.3188 196.277 24.8992 199.263 24.8992Z" fill="#5187EA"/>
    <path d="M160.924 37.673H164.673V32.158H168.815C172.564 32.158 174.809 30.2833 174.809 27.1443C174.809 24.1144 172.433 22.3269 168.858 22.3269H160.924V37.673ZM164.673 25.1825H168.51C170.319 25.1825 171.082 25.9672 171.082 27.2097C171.082 28.7356 170.101 29.2806 168.51 29.2806H164.673V25.1825Z" fill="#5187EA"/>
    <path d="M182.978 31.7656C185.223 31.7656 185.79 32.3977 185.79 33.9454V34.4686C185.79 36.0817 185.811 36.9972 186.073 37.673H189.888C189.692 36.9536 189.692 35.7765 189.692 34.7084V33.9454C189.692 31.1988 188.057 30.5885 187.425 30.3269C188.95 29.8473 190.106 28.692 190.106 26.7084C190.106 24.0708 188.078 22.3269 184.525 22.3269H176.177V37.673H179.86V31.7656H182.978ZM179.86 25.1171H183.719C185.484 25.1171 186.291 25.7928 186.291 27.0136C186.291 28.2996 185.506 28.9536 183.697 28.9536H179.86V25.1171Z" fill="#5187EA"/>
    <path d="M240.63 33.534H242.412C241.466 36.196 239.574 38.33 235.218 38.33C230.136 38.33 227.276 34.744 227.276 30.212C227.276 25.658 230.466 22.006 235.328 22.006C239.772 22.006 241.818 24.36 242.478 26.934H240.652C239.86 25.086 238.496 23.546 235.284 23.546C231.5 23.546 229.146 26.318 229.146 30.146C229.146 33.886 231.522 36.79 235.306 36.79C238.474 36.79 239.706 35.426 240.63 33.534ZM252.991 22.006C257.875 22.006 261.109 25.746 261.109 30.124C261.109 34.568 258.095 38.33 252.969 38.33C247.997 38.33 244.807 34.7 244.807 30.102C244.807 25.746 248.041 22.006 252.991 22.006ZM252.859 23.546C249.053 23.546 246.677 26.538 246.677 30.036C246.677 33.534 248.899 36.79 253.013 36.79C257.039 36.79 259.239 33.798 259.239 30.168C259.239 26.78 256.995 23.546 252.859 23.546ZM266.397 38H264.725V22.336H266.837C270.115 26.714 276.077 34.282 276.935 35.844H276.979C276.847 33.688 276.869 31.334 276.869 28.804V22.336H278.541V38H276.517C273.965 34.656 267.497 26.01 266.309 24.184H266.265C266.397 26.208 266.397 28.43 266.397 31.202V38ZM284.917 38H283.245V22.336H285.357C288.635 26.714 294.597 34.282 295.455 35.844H295.499C295.367 33.688 295.389 31.334 295.389 28.804V22.336H297.061V38H295.037C292.485 34.656 286.017 26.01 284.829 24.184H284.785C284.917 26.208 284.917 28.43 284.917 31.202V38ZM313.094 28.98V30.52H303.524V36.46H314.062L313.82 38H301.764V22.336H313.6V23.876H303.524V28.98H313.094ZM329.661 33.534H331.443C330.497 36.196 328.605 38.33 324.249 38.33C319.167 38.33 316.307 34.744 316.307 30.212C316.307 25.658 319.497 22.006 324.359 22.006C328.803 22.006 330.849 24.36 331.509 26.934H329.683C328.891 25.086 327.527 23.546 324.315 23.546C320.531 23.546 318.177 26.318 318.177 30.146C318.177 33.886 320.553 36.79 324.337 36.79C327.505 36.79 328.737 35.426 329.661 33.534ZM339.221 38V23.876H333.105V22.336H347.097V23.876H341.003V38H339.221Z" fill="white"/>
    <path d="M1383 59H3V61H1383V59Z" fill="#FEFEFE" fill-opacity="0.1" mask="url(#path-1-inside-1_42_5479)"/>
    <mask id="mask0_42_5479" style="mask-type:alpha" maskUnits="userSpaceOnUse" x="1292" y="17" width="24" height="24">
        <rect x="1292" y="17" width="24" height="24" fill="#D9D9D9"/>
    </mask>
    <g mask="url(#mask0_42_5479)">
        <path d="M1295.82 36.125V33.975H1297.85V27.175C1297.85 25.775 1298.27 24.5207 1299.11 23.412C1299.95 22.304 1301.05 21.5834 1302.4 21.25V19.025H1305.6V21.25C1306.95 21.5834 1308.05 22.304 1308.89 23.412C1309.73 24.5207 1310.15 25.775 1310.15 27.175V33.975H1312.17V36.125H1295.82ZM1304 39.025C1303.45 39.025 1302.97 38.8294 1302.57 38.438C1302.17 38.046 1301.97 37.575 1301.97 37.025H1306.02C1306.02 37.575 1305.83 38.046 1305.44 38.438C1305.05 38.8294 1304.57 39.025 1304 39.025ZM1300.02 33.975H1308V27.175C1308 26.075 1307.61 25.1374 1306.82 24.362C1306.04 23.5874 1305.1 23.2 1304 23.2C1302.9 23.2 1301.96 23.5874 1301.19 24.362C1300.41 25.1374 1300.02 26.075 1300.02 27.175V33.975Z" fill="white"/>
    </g>
    <mask id="mask1_42_5479" style="mask-type:alpha" maskUnits="userSpaceOnUse" x="1336" y="17" width="24" height="24">
        <rect x="1336" y="17" width="24" height="24" fill="#D9D9D9"/>
    </mask>
    <g mask="url(#mask1_42_5479)">
        <path d="M1342.03 34C1342.89 33.3667 1343.82 32.875 1344.81 32.525C1345.8 32.175 1346.87 32 1348 32C1349.13 32 1350.2 32.179 1351.2 32.537C1352.2 32.8957 1353.13 33.3834 1353.98 34C1354.58 33.2834 1355.03 32.5084 1355.34 31.675C1355.65 30.8417 1355.8 29.95 1355.8 29C1355.8 26.8334 1355.04 24.9917 1353.53 23.475C1352.01 21.9584 1350.17 21.2 1348 21.2C1345.83 21.2 1343.99 21.9584 1342.48 23.475C1340.96 24.9917 1340.2 26.8334 1340.2 29C1340.2 29.95 1340.35 30.8417 1340.66 31.675C1340.97 32.5084 1341.43 33.2834 1342.03 34ZM1348 30C1347.02 30 1346.19 29.6667 1345.51 29C1344.84 28.3334 1344.5 27.5084 1344.5 26.525C1344.5 25.5417 1344.84 24.7124 1345.51 24.037C1346.19 23.3624 1347.02 23.025 1348 23.025C1348.98 23.025 1349.81 23.3584 1350.49 24.025C1351.16 24.6917 1351.5 25.5167 1351.5 26.5C1351.5 27.4834 1351.16 28.3127 1350.49 28.988C1349.81 29.6627 1348.98 30 1348 30ZM1348 38.9501C1346.62 38.9501 1345.32 38.6877 1344.11 38.163C1342.9 37.6377 1341.85 36.9294 1340.96 36.038C1340.07 35.146 1339.36 34.0917 1338.84 32.875C1338.31 31.6584 1338.05 30.3667 1338.05 29C1338.05 27.6167 1338.31 26.321 1338.84 25.113C1339.36 23.9044 1340.07 22.8544 1340.96 21.963C1341.85 21.071 1342.91 20.3624 1344.13 19.837C1345.34 19.3124 1346.63 19.05 1348 19.05C1349.38 19.05 1350.68 19.3124 1351.89 19.837C1353.1 20.3624 1354.15 21.071 1355.04 21.963C1355.93 22.8544 1356.64 23.9084 1357.16 25.125C1357.69 26.3417 1357.95 27.6334 1357.95 29C1357.95 30.3834 1357.69 31.679 1357.16 32.887C1356.64 34.0957 1355.93 35.146 1355.04 36.038C1354.15 36.9294 1353.09 37.6377 1351.88 38.163C1350.66 38.6877 1349.37 38.9501 1348 38.9501ZM1348 36.8C1348.85 36.8 1349.64 36.6794 1350.38 36.438C1351.11 36.196 1351.82 35.8417 1352.5 35.375C1351.82 34.9084 1351.11 34.554 1350.39 34.312C1349.66 34.0707 1348.87 33.95 1348 33.95C1347.15 33.95 1346.36 34.0707 1345.63 34.312C1344.89 34.554 1344.18 34.9084 1343.5 35.375C1344.18 35.8417 1344.89 36.196 1345.63 36.438C1346.36 36.6794 1347.15 36.8 1348 36.8ZM1348 28.05C1348.43 28.05 1348.8 27.9 1349.09 27.6C1349.38 27.3 1349.53 26.9334 1349.53 26.5C1349.53 26.0834 1349.38 25.725 1349.09 25.425C1348.8 25.125 1348.43 24.975 1348 24.975C1347.57 24.975 1347.2 25.125 1346.91 25.425C1346.62 25.725 1346.48 26.0834 1346.48 26.5C1346.48 26.9334 1346.62 27.3 1346.91 27.6C1347.2 27.9 1347.57 28.05 1348 28.05Z" fill="white"/>
    </g>
    <rect x="872" y="11" width="400" height="36" rx="18" fill="#1F1F1F"/>
    <path opacity="0.4" d="M919.64 31.88C919.88 33.64 921.128 35.144 923.928 35.144C926.696 35.144 928.056 33.736 928.056 31.896C928.056 30.456 927.464 29.224 924.28 28.456C922.376 27.992 921.768 27.592 921.768 26.6C921.768 25.592 922.504 25.032 923.784 25.032C925.368 25.032 925.944 25.832 926.12 26.76H927.8C927.64 25.272 926.536 23.72 923.832 23.72C921.32 23.72 920.072 25.064 920.072 26.776C920.072 28.328 920.936 29.256 923.64 29.912C925.8 30.424 926.344 31.016 926.344 32.088C926.344 33.096 925.688 33.848 924.04 33.848C922.488 33.848 921.608 33.16 921.304 31.88H919.64ZM936.715 31.224C936.747 31 936.747 30.808 936.747 30.552C936.747 28.76 935.867 26.664 933.211 26.664C930.699 26.664 929.467 28.568 929.467 31.016C929.467 33.128 930.539 35.192 933.115 35.192C935.419 35.192 936.283 33.752 936.603 32.712H935.019C934.779 33.288 934.379 33.896 933.163 33.896C931.835 33.896 931.067 32.76 931.051 31.224H936.715ZM931.099 30.152C931.227 28.824 931.819 27.88 933.195 27.88C934.523 27.88 935.147 28.888 935.163 30.152H931.099ZM944.688 29.352C944.688 27.496 943.584 26.664 941.552 26.664C939.184 26.648 938.448 27.928 938.336 29.112H939.856C939.984 28.488 940.208 27.864 941.504 27.864C942.928 27.864 943.152 28.68 943.152 29.368V30.024H941.808C939.392 30.024 937.952 30.872 937.952 32.696C937.952 33.928 938.768 35.192 940.704 35.192C942.256 35.192 942.896 34.52 943.168 33.992C943.2 34.424 943.248 34.824 943.312 35H944.8C944.752 34.776 944.688 33.912 944.688 33.16V29.352ZM943.168 31.336C943.168 32.728 942.912 33.992 941.056 33.992C940.096 33.992 939.552 33.4 939.552 32.6C939.552 31.528 940.352 31.08 941.92 31.08H943.168V31.336ZM947.043 35H948.611V31.128C948.611 29.032 949.667 28.248 951.331 28.216V26.664C949.971 26.696 949.027 27.4 948.611 28.472C948.611 27.752 948.595 27.08 948.563 26.856H947.027C947.027 27.336 947.043 27.992 947.043 29.064V35ZM957.676 32.488C957.372 33.384 956.812 33.912 955.836 33.912C954.508 33.912 953.756 32.744 953.756 30.92C953.756 29.128 954.524 27.96 955.884 27.96C957.004 27.96 957.5 28.616 957.676 29.416H959.228C959.132 28.392 958.332 26.664 955.916 26.664C953.468 26.664 952.14 28.648 952.14 30.968C952.14 33.544 953.516 35.192 955.804 35.192C957.948 35.192 958.892 33.88 959.228 32.488H957.676ZM960.871 23.272V35H962.439V30.568C962.439 28.968 963.015 27.992 964.439 27.992C965.575 27.992 966.119 28.728 966.119 30.056V35H967.687V29.8C967.687 27.416 966.295 26.664 964.935 26.664C963.575 26.664 962.839 27.336 962.439 28.008V23.272H960.871ZM976.555 35H978.219V25.288H981.771V23.88H973.003V25.288H976.555V35ZM983.027 23.272V35H984.595V30.568C984.595 28.968 985.171 27.992 986.595 27.992C987.731 27.992 988.275 28.728 988.275 30.056V35H989.843V29.8C989.843 27.416 988.451 26.664 987.091 26.664C985.731 26.664 984.995 27.336 984.595 28.008V23.272H983.027ZM998.872 31.224C998.904 31 998.904 30.808 998.904 30.552C998.904 28.76 998.024 26.664 995.368 26.664C992.856 26.664 991.624 28.568 991.624 31.016C991.624 33.128 992.696 35.192 995.272 35.192C997.576 35.192 998.44 33.752 998.76 32.712H997.176C996.936 33.288 996.536 33.896 995.32 33.896C993.992 33.896 993.224 32.76 993.208 31.224H998.872ZM993.256 30.152C993.384 28.824 993.976 27.88 995.352 27.88C996.68 27.88 997.304 28.888 997.32 30.152H993.256ZM1004.94 35H1009.44C1011.58 35 1013.16 33.784 1013.16 31.736C1013.16 30.136 1012.01 29.352 1011.24 29.096C1012.08 28.792 1012.81 27.96 1012.81 26.68C1012.81 25.16 1011.72 23.88 1009.31 23.88H1004.94V35ZM1006.56 28.456V25.224H1009.23C1010.46 25.224 1011.15 25.88 1011.15 26.824C1011.15 27.848 1010.56 28.456 1009.04 28.456H1006.56ZM1006.56 29.8H1008.96C1010.73 29.8 1011.47 30.568 1011.47 31.72C1011.47 33.032 1010.57 33.656 1009.2 33.656H1006.56V29.8ZM1016.6 35V23.272H1015.03V35H1016.6ZM1022.26 26.664C1019.78 26.664 1018.37 28.52 1018.37 30.936C1018.37 33.384 1019.8 35.192 1022.17 35.192C1024.68 35.192 1026.04 33.288 1026.04 30.904C1026.04 28.36 1024.55 26.664 1022.26 26.664ZM1022.2 27.96C1023.64 27.96 1024.44 29.128 1024.44 30.936C1024.44 32.728 1023.64 33.896 1022.23 33.896C1020.84 33.896 1019.99 32.664 1019.99 30.92C1019.99 29.096 1020.76 27.96 1022.2 27.96ZM1032.89 32.488C1032.59 33.384 1032.03 33.912 1031.05 33.912C1029.73 33.912 1028.97 32.744 1028.97 30.92C1028.97 29.128 1029.74 27.96 1031.1 27.96C1032.22 27.96 1032.72 28.616 1032.89 29.416H1034.45C1034.35 28.392 1033.55 26.664 1031.13 26.664C1028.69 26.664 1027.36 28.648 1027.36 30.968C1027.36 33.544 1028.73 35.192 1031.02 35.192C1033.17 35.192 1034.11 33.88 1034.45 32.488H1032.89ZM1037.66 23.272H1036.09V35H1037.66V32.168L1038.84 31.016L1041.45 35H1043.27L1039.91 30.008L1042.94 26.856H1041.08C1039.98 28.088 1038.33 29.848 1037.66 30.648V23.272ZM1048.61 35H1050.26V30.52H1052.82C1055 30.52 1056.6 29.368 1056.6 27.16C1056.6 25.112 1055.11 23.88 1052.9 23.88H1048.61V35ZM1050.26 25.256H1052.76C1054 25.256 1054.92 25.88 1054.92 27.192C1054.92 28.456 1054.15 29.144 1052.71 29.144H1050.26V25.256ZM1058.18 35H1059.75V31.128C1059.75 29.032 1060.81 28.248 1062.47 28.216V26.664C1061.11 26.696 1060.17 27.4 1059.75 28.472C1059.75 27.752 1059.74 27.08 1059.7 26.856H1058.17C1058.17 27.336 1058.18 27.992 1058.18 29.064V35ZM1067.15 26.664C1064.67 26.664 1063.26 28.52 1063.26 30.936C1063.26 33.384 1064.69 35.192 1067.06 35.192C1069.57 35.192 1070.93 33.288 1070.93 30.904C1070.93 28.36 1069.44 26.664 1067.15 26.664ZM1067.09 27.96C1068.53 27.96 1069.33 29.128 1069.33 30.936C1069.33 32.728 1068.53 33.896 1067.12 33.896C1065.73 33.896 1064.88 32.664 1064.88 30.92C1064.88 29.096 1065.65 27.96 1067.09 27.96Z" fill="white"/>
    <mask id="mask2_42_5479" style="mask-type:alpha" maskUnits="userSpaceOnUse" x="886" y="18" width="24" height="24">
        <rect x="886" y="18" width="24" height="24" fill="#D9D9D9"/>
    </mask>
    <g mask="url(#mask2_42_5479)">
        <path d="M905.475 39.025L899.225 32.775C898.742 33.1584 898.179 33.4584 897.538 33.675C896.896 33.8917 896.217 34 895.5 34C893.683 34 892.15 33.371 890.9 32.113C889.65 30.8544 889.025 29.325 889.025 27.525C889.025 25.725 889.65 24.1957 890.9 22.937C892.15 21.679 893.683 21.05 895.5 21.05C897.3 21.05 898.825 21.679 900.075 22.937C901.325 24.1957 901.95 25.725 901.95 27.525C901.95 28.2417 901.842 28.9207 901.625 29.562C901.408 30.204 901.117 30.7667 900.75 31.25L906.975 37.5L905.475 39.025ZM895.5 31.825C896.7 31.825 897.717 31.4084 898.55 30.575C899.383 29.7417 899.8 28.725 899.8 27.525C899.8 26.325 899.383 25.3084 898.55 24.475C897.717 23.6417 896.7 23.225 895.5 23.225C894.283 23.225 893.258 23.6417 892.425 24.475C891.592 25.3084 891.175 26.325 891.175 27.525C891.175 28.725 891.592 29.7417 892.425 30.575C893.258 31.4084 894.283 31.825 895.5 31.825Z" fill="white"/>
    </g>
    <rect x="215" y="28" width="4" height="4" fill="white"/>
</svg>
