<svg width="60" height="900" viewBox="0 0 60 900" fill="none" xmlns="http://www.w3.org/2000/svg">
    <mask id="path-1-inside-1_42_5497" fill="white">
        <path d="M0 0H60V900H0V0Z"/>
    </mask>
    <path d="M0 0H60V900H0V0Z" fill="#111111"/>
    <path d="M41.7665 21.5119L30.4706 17.0974C30.0487 16.9675 29.9188 16.9675 29.4969 17.0974L18.201 21.5119C17.7465 21.7066 17.6492 21.8689 17.6492 22.3233V37.4494C17.6492 37.9363 17.7465 38.0337 18.201 38.2609L29.4969 42.8702C29.7241 42.9675 29.8539 43 30.0162 43C30.146 43 30.3083 42.9675 30.5031 42.8702L41.799 38.2609C42.2534 38.0986 42.3508 37.9363 42.3508 37.4494V22.3233C42.3183 21.8689 42.221 21.7066 41.7665 21.5119V21.5119ZM39.4619 37.5144L29.9838 41.3121L20.5056 37.5144L29.9838 34.1061L39.4619 37.5144V37.5144ZM20.5381 22.2584L29.9838 18.6554L39.4294 22.2584L29.9838 25.6991L20.5381 22.2584ZM33.5867 32.7104C33.7815 32.6454 33.9113 32.4507 33.9113 32.2559V27.5493C33.9113 27.3546 33.7815 27.1598 33.5867 27.0949L32.3208 26.5755L40.6954 23.4919V36.3134L32.3208 33.2297L33.5867 32.7104ZM32.2559 28.3608V31.4444L29.9838 32.3533L27.7441 31.4444V28.3608L29.9838 27.4519L32.2559 28.3608ZM26.4132 27.0949C26.2185 27.1598 26.0886 27.3546 26.0886 27.5818V32.2559C26.0886 32.4507 26.2185 32.6454 26.4132 32.7104L27.6791 33.2297L19.3046 36.3134V23.4919L27.6791 26.608L26.4132 27.0949Z" fill="#FEFEFE"/>
    <path d="M0 59H60V61H0V59Z" fill="#333333" mask="url(#path-3-inside-2_42_5497)"/>
    <path fill-rule="evenodd" clip-rule="evenodd" d="M24.7664 82.5428V87.7H32.1931V85.9642H26.3388V81.1172L24.7664 82.5428Z" fill="#FEFEFE"/>
    <path fill-rule="evenodd" clip-rule="evenodd" d="M38.3277 81.0558L29.9478 73.3L21.7591 81.0558C21.7049 81.108 21.6668 81.1761 21.6496 81.2514C21.6324 81.3267 21.637 81.4057 21.6627 81.4783C21.6885 81.5508 21.7342 81.6135 21.7939 81.6583C21.8537 81.7031 21.9248 81.7279 21.9981 81.7295H23.3443L25.264 79.9864L30.0434 75.5906L33.9067 79.0937V80.7779V85.9569V87.7H35.3804V81.7295H38.0887C38.1619 81.7279 38.233 81.7031 38.2928 81.6583C38.3526 81.6135 38.3983 81.5508 38.424 81.4783C38.4498 81.4057 38.4543 81.3267 38.4371 81.2514C38.42 81.1761 38.3818 81.108 38.3277 81.0558V81.0558Z" fill="#FEFEFE"/>
    <path d="M17.5943 104.5V97.55H18.6243V100.42H22.0843V97.55H23.1143V104.5H22.0843V101.29H18.6243V104.5H17.5943ZM26.77 99.29C28.2 99.29 29.13 100.35 29.13 101.94C29.13 103.43 28.28 104.62 26.71 104.62C25.23 104.62 24.34 103.49 24.34 101.96C24.34 100.45 25.22 99.29 26.77 99.29ZM26.73 100.1C25.83 100.1 25.35 100.81 25.35 101.95C25.35 103.04 25.88 103.81 26.75 103.81C27.63 103.81 28.13 103.08 28.13 101.96C28.13 100.83 27.63 100.1 26.73 100.1ZM30.2368 104.5V100.72C30.2368 100.28 30.2368 99.83 30.2268 99.41H31.1668C31.1868 99.56 31.2068 99.91 31.2068 100.16C31.4468 99.72 31.8868 99.29 32.6768 99.29C33.3968 99.29 33.8768 99.66 34.0668 100.17C34.3468 99.7 34.8168 99.29 35.6768 99.29C36.5168 99.29 37.2868 99.79 37.2868 101.16V104.5H36.3268V101.27C36.3268 100.71 36.1168 100.12 35.3668 100.12C34.5868 100.12 34.2468 100.7 34.2468 101.58V104.5H33.2868V101.31C33.2868 100.68 33.1068 100.12 32.3468 100.12C31.5768 100.12 31.2068 100.73 31.2068 101.68V104.5H30.2368ZM42.9227 102.14H39.3827C39.3927 103.1 39.8727 103.81 40.7027 103.81C41.4627 103.81 41.7127 103.43 41.8627 103.07H42.8527C42.6527 103.72 42.1127 104.62 40.6727 104.62C39.0627 104.62 38.3927 103.33 38.3927 102.01C38.3927 100.48 39.1627 99.29 40.7327 99.29C42.3927 99.29 42.9427 100.6 42.9427 101.72C42.9427 101.88 42.9427 102 42.9227 102.14ZM39.4127 101.47H41.9527C41.9427 100.68 41.5527 100.05 40.7227 100.05C39.8627 100.05 39.4927 100.64 39.4127 101.47Z" fill="#FEFEFE"/>
    <path d="M30.7599 138.1H29.2398V139.7H27.7197V141.3H29.2398V142.9H30.7599V141.3H32.28V139.7H30.7599V138.1Z" fill="#FEFEFE"/>
    <path d="M29.2398 146.1H24.6795V141.3H26.1996V139.7H24.6795C24.2764 139.7 23.8897 139.869 23.6047 140.169C23.3196 140.469 23.1594 140.876 23.1594 141.3V146.1C23.1594 146.524 23.3196 146.931 23.6047 147.231C23.8897 147.531 24.2764 147.7 24.6795 147.7H29.2398C29.643 147.7 30.0296 147.531 30.3147 147.231C30.5998 146.931 30.7599 146.524 30.7599 146.1V144.5H29.2398V146.1Z" fill="#FEFEFE"/>
    <path d="M35.3201 133.3H30.7598C30.3567 133.3 29.97 133.469 29.685 133.769C29.3999 134.069 29.2397 134.476 29.2397 134.9V136.5H30.7598V134.9H35.3201V139.7H33.8V141.3H35.3201C35.7233 141.3 36.1099 141.131 36.395 140.831C36.6801 140.531 36.8402 140.124 36.8402 139.7V134.9C36.8402 134.476 36.6801 134.069 36.395 133.769C36.1099 133.469 35.7233 133.3 35.3201 133.3Z" fill="#FEFEFE"/>
    <path d="M12.415 161.49H11.085V164.5H10.065V157.55H12.845C14.285 157.55 15.055 158.34 15.055 159.42C15.055 160.33 14.535 160.87 13.905 161.06C14.425 161.2 14.925 161.62 14.925 162.83V163.13C14.925 163.61 14.915 164.2 15.025 164.5H14.025C13.905 164.2 13.905 163.66 13.905 162.99V162.86C13.905 161.91 13.645 161.49 12.415 161.49ZM11.085 158.41V160.64H12.545C13.565 160.64 13.995 160.26 13.995 159.51C13.995 158.81 13.535 158.41 12.635 158.41H11.085ZM20.5399 162.14H16.9999C17.0099 163.1 17.4899 163.81 18.3199 163.81C19.0799 163.81 19.3299 163.43 19.4799 163.07H20.4699C20.2699 163.72 19.7299 164.62 18.2899 164.62C16.6799 164.62 16.0099 163.33 16.0099 162.01C16.0099 160.48 16.7799 159.29 18.3499 159.29C20.0099 159.29 20.5599 160.6 20.5599 161.72C20.5599 161.88 20.5599 162 20.5399 162.14ZM17.0299 161.47H19.5699C19.5599 160.68 19.1699 160.05 18.3399 160.05C17.4799 160.05 17.1099 160.64 17.0299 161.47ZM21.2912 163.03H22.2712C22.4012 163.56 22.8012 163.86 23.4612 163.86C24.1612 163.86 24.4312 163.57 24.4312 163.14C24.4312 162.69 24.2012 162.49 23.2812 162.26C21.7812 161.9 21.4912 161.44 21.4912 160.74C21.4912 160.02 22.0212 159.29 23.3712 159.29C24.7312 159.29 25.2612 160.07 25.3212 160.77H24.3812C24.3112 160.47 24.0912 160.03 23.3312 160.03C22.6612 160.03 22.4612 160.35 22.4612 160.66C22.4612 161.02 22.6612 161.19 23.5712 161.41C25.1512 161.78 25.4412 162.31 25.4412 163.06C25.4412 163.95 24.7512 164.62 23.4212 164.62C22.0612 164.62 21.4212 163.94 21.2912 163.03ZM30.745 162.14H27.205C27.215 163.1 27.695 163.81 28.525 163.81C29.285 163.81 29.535 163.43 29.685 163.07H30.675C30.475 163.72 29.935 164.62 28.495 164.62C26.885 164.62 26.215 163.33 26.215 162.01C26.215 160.48 26.985 159.29 28.555 159.29C30.215 159.29 30.765 160.6 30.765 161.72C30.765 161.88 30.765 162 30.745 162.14ZM27.235 161.47H29.775C29.765 160.68 29.375 160.05 28.545 160.05C27.685 160.05 27.315 160.64 27.235 161.47ZM35.7279 160.97V163.35C35.7279 163.82 35.7679 164.36 35.7979 164.5H34.8679C34.8279 164.39 34.7979 164.14 34.7779 163.87C34.6079 164.2 34.2079 164.62 33.2379 164.62C32.0279 164.62 31.5179 163.83 31.5179 163.06C31.5179 161.92 32.4179 161.39 33.9279 161.39H34.7679V160.98C34.7679 160.55 34.6279 160.04 33.7379 160.04C32.9279 160.04 32.7879 160.43 32.7079 160.82H31.7579C31.8279 160.08 32.2879 159.28 33.7679 159.29C35.0379 159.29 35.7279 159.81 35.7279 160.97ZM34.7779 162.21V162.05H33.9979C33.0179 162.05 32.5179 162.33 32.5179 163C32.5179 163.5 32.8579 163.87 33.4579 163.87C34.6179 163.87 34.7779 163.08 34.7779 162.21ZM37.1997 164.5V160.79C37.1997 160.12 37.1897 159.71 37.1897 159.41H38.1497C38.1697 159.55 38.1797 159.97 38.1797 160.42C38.4397 159.75 39.0297 159.31 39.8797 159.29V160.26C38.8397 160.28 38.1797 160.77 38.1797 162.08V164.5H37.1997ZM43.8451 162.93H44.8151C44.6051 163.8 44.0151 164.62 42.6751 164.62C41.2451 164.62 40.3851 163.59 40.3851 161.98C40.3851 160.53 41.2151 159.29 42.7451 159.29C44.2551 159.29 44.7551 160.37 44.8151 161.01H43.8451C43.7351 160.51 43.4251 160.1 42.7251 160.1C41.8751 160.1 41.3951 160.83 41.3951 161.95C41.3951 163.09 41.8651 163.82 42.6951 163.82C43.3051 163.82 43.6551 163.49 43.8451 162.93ZM45.8423 157.17H46.8223V160.13C47.0723 159.71 47.5323 159.29 48.3823 159.29C49.2323 159.29 50.1023 159.76 50.1023 161.25V164.5H49.1223V161.41C49.1223 160.58 48.7823 160.12 48.0723 160.12C47.1823 160.12 46.8223 160.73 46.8223 161.73V164.5H45.8423V157.17Z" fill="#FEFEFE"/>
    <path d="M36.8403 194.5H23.1594V196.194H36.8403V194.5Z" fill="#FEFEFE"/>
    <path d="M36.8403 199.582H23.1594V201.277H36.8403V199.582Z" fill="#FEFEFE"/>
    <path d="M30.4023 204.665H23.1594V206.359H30.4023V204.665Z" fill="#FEFEFE"/>
    <path d="M19.2772 224.5H18.3072V217.55H19.6472C20.6172 219.17 22.6772 222.5 23.0572 223.25H23.0672C22.9972 222.39 23.0072 221.28 23.0072 220.14V217.55H23.9672V224.5H22.7072C21.8172 223.02 19.6572 219.4 19.2372 218.61H19.2172C19.2672 219.37 19.2772 220.59 19.2772 221.85V224.5ZM29.7196 222.14H26.1796C26.1896 223.1 26.6696 223.81 27.4996 223.81C28.2596 223.81 28.5096 223.43 28.6596 223.07H29.6496C29.4496 223.72 28.9096 224.62 27.4696 224.62C25.8596 224.62 25.1896 223.33 25.1896 222.01C25.1896 220.48 25.9596 219.29 27.5296 219.29C29.1896 219.29 29.7396 220.6 29.7396 221.72C29.7396 221.88 29.7396 222 29.7196 222.14ZM26.2096 221.47H28.7496C28.7396 220.68 28.3496 220.05 27.5196 220.05C26.6596 220.05 26.2896 220.64 26.2096 221.47ZM30.3325 219.41H31.3725C31.9725 221.73 32.3125 223.05 32.4025 223.6H32.4125C32.5125 223.11 32.8225 221.93 33.5325 219.41H34.4825C35.2325 222.22 35.4525 223.03 35.5425 223.51H35.5525C35.6725 222.97 35.8625 222.21 36.6225 219.41H37.6125L36.0525 224.5H34.9925C34.5125 222.63 34.0725 221.05 33.9625 220.47H33.9525C33.8625 221.04 33.4425 222.52 32.8925 224.5H31.8025L30.3325 219.41ZM38.0783 223.03H39.0583C39.1883 223.56 39.5883 223.86 40.2483 223.86C40.9483 223.86 41.2183 223.57 41.2183 223.14C41.2183 222.69 40.9883 222.49 40.0683 222.26C38.5683 221.9 38.2783 221.44 38.2783 220.74C38.2783 220.02 38.8083 219.29 40.1583 219.29C41.5183 219.29 42.0483 220.07 42.1083 220.77H41.1683C41.0983 220.47 40.8783 220.03 40.1183 220.03C39.4483 220.03 39.2483 220.35 39.2483 220.66C39.2483 221.02 39.4483 221.19 40.3583 221.41C41.9383 221.78 42.2283 222.31 42.2283 223.06C42.2283 223.95 41.5383 224.62 40.2083 224.62C38.8483 224.62 38.2083 223.94 38.0783 223.03Z" fill="#FEFEFE"/>
    <path d="M35.3202 262.588V266.1H24.6795V262.612L27.0205 260.852L30.6535 262.9C30.7633 262.962 30.886 262.995 31.0107 262.996C31.1919 262.996 31.3671 262.928 31.5048 262.804L36.8251 258.004V254.9C36.8251 254.476 36.665 254.069 36.3799 253.769C36.0948 253.469 35.7082 253.3 35.305 253.3H24.6795C24.2764 253.3 23.8897 253.469 23.6047 253.769C23.3196 254.069 23.1594 254.476 23.1594 254.9V258.9L24.6795 257.684V254.9H35.3202V257.3L30.9195 261.212L27.3169 259.204C27.1921 259.134 27.0513 259.103 26.9103 259.113C26.7693 259.122 26.6338 259.174 26.5188 259.26L25.5536 259.988L23.1594 261.852V266.1C23.1594 266.524 23.3196 266.931 23.6047 267.231C23.8897 267.531 24.2764 267.7 24.6795 267.7H35.3202C35.7234 267.7 36.11 267.531 36.3951 267.231C36.6802 266.931 36.8403 266.524 36.8403 266.1V261.212L35.3202 262.588Z" fill="#FEFEFE"/>
    <path d="M20.3824 284.5V277.55H22.9124C24.8824 277.55 26.2024 278.89 26.2024 280.95C26.2024 283 24.9124 284.5 22.8724 284.5H20.3824ZM21.4124 278.42V283.64H22.8024C24.3824 283.64 25.1224 282.5 25.1224 280.97C25.1224 279.64 24.4424 278.42 22.8124 278.42H21.4124ZM31.2699 280.97V283.35C31.2699 283.82 31.3099 284.36 31.3399 284.5H30.4099C30.3699 284.39 30.3399 284.14 30.3199 283.87C30.1499 284.2 29.7499 284.62 28.7799 284.62C27.5699 284.62 27.0599 283.83 27.0599 283.06C27.0599 281.92 27.9599 281.39 29.4699 281.39H30.3099V280.98C30.3099 280.55 30.1699 280.04 29.2799 280.04C28.4699 280.04 28.3299 280.43 28.2499 280.82H27.2999C27.3699 280.08 27.8299 279.28 29.3099 279.29C30.5799 279.29 31.2699 279.81 31.2699 280.97ZM30.3199 282.21V282.05H29.5399C28.5599 282.05 28.0599 282.33 28.0599 283C28.0599 283.5 28.3999 283.87 28.9999 283.87C30.1599 283.87 30.3199 283.08 30.3199 282.21ZM32.0436 280.19V279.41H32.9036V277.93H33.8836V279.41H34.9836V280.19H33.8836V283.08C33.8836 283.56 34.0036 283.79 34.4536 283.79C34.5736 283.79 34.7436 283.79 34.8736 283.75V284.48C34.6436 284.56 34.3336 284.57 34.0836 284.57C33.2436 284.57 32.9036 284.14 32.9036 283.28V280.19H32.0436ZM39.7758 280.97V283.35C39.7758 283.82 39.8158 284.36 39.8458 284.5H38.9158C38.8758 284.39 38.8458 284.14 38.8258 283.87C38.6558 284.2 38.2558 284.62 37.2858 284.62C36.0758 284.62 35.5658 283.83 35.5658 283.06C35.5658 281.92 36.4658 281.39 37.9758 281.39H38.8158V280.98C38.8158 280.55 38.6758 280.04 37.7858 280.04C36.9758 280.04 36.8358 280.43 36.7558 280.82H35.8058C35.8758 280.08 36.3358 279.28 37.8158 279.29C39.0858 279.29 39.7758 279.81 39.7758 280.97ZM38.8258 282.21V282.05H38.0458C37.0658 282.05 36.5658 282.33 36.5658 283C36.5658 283.5 36.9058 283.87 37.5058 283.87C38.6658 283.87 38.8258 283.08 38.8258 282.21Z" fill="#FEFEFE"/>
    <mask id="mask0_42_5497" style="mask-type:alpha" maskUnits="userSpaceOnUse" x="20" y="310" width="20" height="21">
        <rect x="20.4993" y="310.5" width="19.0012" height="20" fill="#D9D9D9"/>
    </mask>
    <g mask="url(#mask0_42_5497)">
        <path d="M23.7256 326.271H26.7737V319.729H23.7256V326.271ZM28.4759 326.271H31.5241V314.729H28.4759V326.271ZM33.2263 326.271H36.2744V321.396H33.2263V326.271ZM22.0234 328.063V317.938H26.7737V312.938H33.2263V319.604H37.9766V328.063H22.0234Z" fill="#FEFEFE"/>
    </g>
    <path d="M18.3756 344.5V337.55H20.9056C22.8756 337.55 24.1956 338.89 24.1956 340.95C24.1956 343 22.9056 344.5 20.8656 344.5H18.3756ZM19.4056 338.42V343.64H20.7956C22.3756 343.64 23.1156 342.5 23.1156 340.97C23.1156 339.64 22.4356 338.42 20.8056 338.42H19.4056ZM29.5926 342.14H26.0526C26.0626 343.1 26.5426 343.81 27.3726 343.81C28.1326 343.81 28.3826 343.43 28.5326 343.07H29.5226C29.3226 343.72 28.7826 344.62 27.3426 344.62C25.7326 344.62 25.0626 343.33 25.0626 342.01C25.0626 340.48 25.8326 339.29 27.4026 339.29C29.0626 339.29 29.6126 340.6 29.6126 341.72C29.6126 341.88 29.6126 342 29.5926 342.14ZM26.0826 341.47H28.6226C28.6126 340.68 28.2226 340.05 27.3926 340.05C26.5326 340.05 26.1626 340.64 26.0826 341.47ZM34.5756 340.97V343.35C34.5756 343.82 34.6156 344.36 34.6456 344.5H33.7156C33.6756 344.39 33.6456 344.14 33.6256 343.87C33.4556 344.2 33.0556 344.62 32.0856 344.62C30.8756 344.62 30.3656 343.83 30.3656 343.06C30.3656 341.92 31.2656 341.39 32.7756 341.39H33.6156V340.98C33.6156 340.55 33.4756 340.04 32.5856 340.04C31.7756 340.04 31.6356 340.43 31.5556 340.82H30.6056C30.6756 340.08 31.1356 339.28 32.6156 339.29C33.8856 339.29 34.5756 339.81 34.5756 340.97ZM33.6256 342.21V342.05H32.8456C31.8656 342.05 31.3656 342.33 31.3656 343C31.3656 343.5 31.7056 343.87 32.3056 343.87C33.4656 343.87 33.6256 343.08 33.6256 342.21ZM37.0274 344.5H36.0474V337.17H37.0274V344.5ZM38.01 343.03H38.99C39.12 343.56 39.52 343.86 40.18 343.86C40.88 343.86 41.15 343.57 41.15 343.14C41.15 342.69 40.92 342.49 40 342.26C38.5 341.9 38.21 341.44 38.21 340.74C38.21 340.02 38.74 339.29 40.09 339.29C41.45 339.29 41.98 340.07 42.04 340.77H41.1C41.03 340.47 40.81 340.03 40.05 340.03C39.38 340.03 39.18 340.35 39.18 340.66C39.18 341.02 39.38 341.19 40.29 341.41C41.87 341.78 42.16 342.31 42.16 343.06C42.16 343.95 41.47 344.62 40.14 344.62C38.78 344.62 38.14 343.94 38.01 343.03Z" fill="#FEFEFE"/>
    <mask id="mask1_42_5497" style="mask-type:alpha" maskUnits="userSpaceOnUse" x="20" y="370" width="20" height="21">
        <rect x="20.4993" y="370.5" width="19.0012" height="20" fill="#D9D9D9"/>
    </mask>
    <g mask="url(#mask1_42_5497)">
        <path d="M22.8943 388.792V373.833H25.4278V372.167H27.031V373.833H32.9689V372.167H34.5721V373.833H37.1056V388.792H22.8943ZM24.5965 387H35.4034V378.875H24.5965V387ZM24.5965 377.313H35.4034V375.625H24.5965V377.313Z" fill="#FEFEFE"/>
    </g>
    <path d="M20.3791 400.43V401.3H16.9491V403.63H20.7191L20.5891 404.5H15.9391V397.55H20.5391V398.43H16.9491V400.43H20.3791ZM21.1256 399.41H22.1756C22.8256 401.42 23.3056 402.97 23.4556 403.6H23.4656C23.5856 402.98 24.1256 401.45 24.8256 399.41H25.8156L23.9556 404.5H22.8956L21.1256 399.41ZM30.7889 402.14H27.2489C27.2589 403.1 27.7389 403.81 28.5689 403.81C29.3289 403.81 29.5789 403.43 29.7289 403.07H30.7189C30.5189 403.72 29.9789 404.62 28.5389 404.62C26.9289 404.62 26.2589 403.33 26.2589 402.01C26.2589 400.48 27.0289 399.29 28.5989 399.29C30.2589 399.29 30.8089 400.6 30.8089 401.72C30.8089 401.88 30.8089 402 30.7889 402.14ZM27.2789 401.47H29.8189C29.8089 400.68 29.4189 400.05 28.5889 400.05C27.7289 400.05 27.3589 400.64 27.2789 401.47ZM31.9019 404.5V400.69C31.9019 400.25 31.9019 399.8 31.8919 399.41H32.8519C32.8719 399.56 32.8919 400.06 32.8919 400.21C33.0819 399.79 33.5019 399.29 34.4619 399.29C35.4319 399.29 36.1619 399.89 36.1619 401.23V404.5H35.1819V401.35C35.1819 400.62 34.9019 400.12 34.1519 400.12C33.2619 400.12 32.8919 400.78 32.8919 401.78V404.5H31.9019ZM36.9264 400.19V399.41H37.7864V397.93H38.7664V399.41H39.8664V400.19H38.7664V403.08C38.7664 403.56 38.8864 403.79 39.3364 403.79C39.4564 403.79 39.6264 403.79 39.7564 403.75V404.48C39.5264 404.56 39.2164 404.57 38.9664 404.57C38.1264 404.57 37.7864 404.14 37.7864 403.28V400.19H36.9264ZM40.4465 403.03H41.4265C41.5565 403.56 41.9565 403.86 42.6165 403.86C43.3165 403.86 43.5865 403.57 43.5865 403.14C43.5865 402.69 43.3565 402.49 42.4365 402.26C40.9365 401.9 40.6465 401.44 40.6465 400.74C40.6465 400.02 41.1765 399.29 42.5265 399.29C43.8865 399.29 44.4165 400.07 44.4765 400.77H43.5365C43.4665 400.47 43.2465 400.03 42.4865 400.03C41.8165 400.03 41.6165 400.35 41.6165 400.66C41.6165 401.02 41.8165 401.19 42.7265 401.41C44.3065 401.78 44.5965 402.31 44.5965 403.06C44.5965 403.95 43.9065 404.62 42.5765 404.62C41.2165 404.62 40.5765 403.94 40.4465 403.03Z" fill="#FEFEFE"/>
    <rect width="60" height="60" transform="translate(0 420)" fill="#FEFEFE"/>
    <path d="M23.7351 440.423L34.1967 431.5L30.1967 440.423H36.9659L26.5044 449.5L30.1967 440.423H23.7351Z" fill="#111111"/>
    <path d="M16.5728 464.5H17.6028C17.3028 465.7 16.4028 466.59 14.8028 466.59C12.7028 466.59 11.6528 465.02 11.6528 463.05C11.6528 461.16 12.7028 459.45 14.8428 459.45C16.5228 459.45 17.4128 460.42 17.6028 461.58H16.5728C16.3428 460.86 15.8728 460.3 14.8028 460.3C13.3228 460.3 12.7328 461.64 12.7328 463.02C12.7328 464.35 13.2928 465.74 14.8428 465.74C15.8928 465.74 16.3328 465.12 16.5728 464.5ZM20.8569 461.29C22.2869 461.29 23.2169 462.35 23.2169 463.94C23.2169 465.43 22.3669 466.62 20.7969 466.62C19.3169 466.62 18.4269 465.49 18.4269 463.96C18.4269 462.45 19.3069 461.29 20.8569 461.29ZM20.8169 462.1C19.9169 462.1 19.4369 462.81 19.4369 463.95C19.4369 465.04 19.9669 465.81 20.8369 465.81C21.7169 465.81 22.2169 465.08 22.2169 463.96C22.2169 462.83 21.7169 462.1 20.8169 462.1ZM24.3238 466.5V462.69C24.3238 462.25 24.3238 461.8 24.3138 461.41H25.2738C25.2938 461.56 25.3138 462.06 25.3138 462.21C25.5038 461.79 25.9238 461.29 26.8838 461.29C27.8538 461.29 28.5838 461.89 28.5838 463.23V466.5H27.6038V463.35C27.6038 462.62 27.3238 462.12 26.5738 462.12C25.6838 462.12 25.3138 462.78 25.3138 463.78V466.5H24.3238ZM30.0366 466.5V462.69C30.0366 462.25 30.0366 461.8 30.0266 461.41H30.9866C31.0066 461.56 31.0266 462.06 31.0266 462.21C31.2166 461.79 31.6366 461.29 32.5966 461.29C33.5666 461.29 34.2966 461.89 34.2966 463.23V466.5H33.3166V463.35C33.3166 462.62 33.0366 462.12 32.2866 462.12C31.3966 462.12 31.0266 462.78 31.0266 463.78V466.5H30.0366ZM39.9295 464.14H36.3895C36.3995 465.1 36.8795 465.81 37.7095 465.81C38.4695 465.81 38.7195 465.43 38.8695 465.07H39.8595C39.6595 465.72 39.1195 466.62 37.6795 466.62C36.0695 466.62 35.3995 465.33 35.3995 464.01C35.3995 462.48 36.1695 461.29 37.7395 461.29C39.3995 461.29 39.9495 462.6 39.9495 463.72C39.9495 463.88 39.9495 464 39.9295 464.14ZM36.4195 463.47H38.9595C38.9495 462.68 38.5595 462.05 37.7295 462.05C36.8695 462.05 36.4995 462.64 36.4195 463.47ZM44.2309 464.93H45.2009C44.9909 465.8 44.4009 466.62 43.0609 466.62C41.6309 466.62 40.7709 465.59 40.7709 463.98C40.7709 462.53 41.6009 461.29 43.1309 461.29C44.6409 461.29 45.1409 462.37 45.2009 463.01H44.2309C44.1209 462.51 43.8109 462.1 43.1109 462.1C42.2609 462.1 41.7809 462.83 41.7809 463.95C41.7809 465.09 42.2509 465.82 43.0809 465.82C43.6909 465.82 44.0409 465.49 44.2309 464.93ZM45.7057 462.19V461.41H46.5657V459.93H47.5457V461.41H48.6457V462.19H47.5457V465.08C47.5457 465.56 47.6657 465.79 48.1157 465.79C48.2357 465.79 48.4057 465.79 48.5357 465.75V466.48C48.3057 466.56 47.9957 466.57 47.7457 466.57C46.9057 466.57 46.5657 466.14 46.5657 465.28V462.19H45.7057Z" fill="#111111"/>
    <mask id="mask2_42_5497" style="mask-type:alpha" maskUnits="userSpaceOnUse" x="20" y="490" width="20" height="21">
        <rect x="20.4993" y="490.5" width="19.0012" height="20" fill="#D9D9D9"/>
    </mask>
    <g mask="url(#mask2_42_5497)">
        <path d="M29.9206 507.25V499.75H22.7952V497.958H31.6228V507.25H29.9206ZM33.899 503.062V495.562H26.7736V493.771H35.6012V503.062H33.899Z" fill="#FEFEFE"/>
    </g>
    <path d="M25.311 524.5V521.61C25.311 520.34 25.331 519.02 25.361 518.28H25.321C25.021 519.46 23.971 522.32 23.201 524.5H22.291C21.711 522.7 20.631 519.49 20.321 518.27H20.281C20.341 519.07 20.361 520.59 20.361 521.78V524.5H19.401V517.55H20.941C21.681 519.65 22.571 522.33 22.811 523.24H22.821C22.991 522.53 24.051 519.59 24.831 517.55H26.321V524.5H25.311ZM29.9438 519.29C31.3738 519.29 32.3038 520.35 32.3038 521.94C32.3038 523.43 31.4538 524.62 29.8838 524.62C28.4038 524.62 27.5138 523.49 27.5138 521.96C27.5138 520.45 28.3938 519.29 29.9438 519.29ZM29.9038 520.1C29.0038 520.1 28.5238 520.81 28.5238 521.95C28.5238 523.04 29.0538 523.81 29.9238 523.81C30.8038 523.81 31.3038 523.08 31.3038 521.96C31.3038 520.83 30.8038 520.1 29.9038 520.1ZM33.4107 524.5V520.79C33.4107 520.12 33.4007 519.71 33.4007 519.41H34.3607C34.3807 519.55 34.3907 519.97 34.3907 520.42C34.6507 519.75 35.2407 519.31 36.0907 519.29V520.26C35.0507 520.28 34.3907 520.77 34.3907 522.08V524.5H33.4107ZM41.1161 522.14H37.5761C37.5861 523.1 38.0661 523.81 38.8961 523.81C39.6561 523.81 39.9061 523.43 40.0561 523.07H41.0461C40.8461 523.72 40.3061 524.62 38.8661 524.62C37.2561 524.62 36.5861 523.33 36.5861 522.01C36.5861 520.48 37.3561 519.29 38.9261 519.29C40.5861 519.29 41.1361 520.6 41.1361 521.72C41.1361 521.88 41.1361 522 41.1161 522.14ZM37.6061 521.47H40.1461C40.1361 520.68 39.7461 520.05 38.9161 520.05C38.0561 520.05 37.6861 520.64 37.6061 521.47Z" fill="#FEFEFE"/>
    <path d="M59 0V900H61V0H59Z" fill="#333333" mask="url(#path-1-inside-1_42_5497)"/>
</svg>
